:FULLY-SPECIFIED
:FORCE-ALL-JOINTS-BE-3DOF
:DEGREES
679
root 5.35991 15.9581 0.763613 15.3875 -24.7829 0.273046
lfemur -38.0832 26.2421 -4.92823
ltibia 109.963 -0 0
lfoot 16.1284 -16.7722 -0.954664
ltoes 10.0134 -0 0
rfemur -36.2481 -11.3664 25.1651
rtibia 58.3138 -0 0
rfoot -23.3456 -5.29217 0.000470006
rtoes 1.81626 -0 0
lowerback 1.2308 -6.57501 -0.523112
upperback -1.82741 -8.78716 0.528871
thorax -2.40299 -4.3749 1.11035
lowerneck -8.84195 -3.84335 0.503617
upperneck 2.61165 -5.32935 2.64406
head 2.41852 -2.56587 0.501668
lclavicle 0 0 0
lhumerus 22.3377 -58.7002 44.3491
lradius 90.9714 -0 0
lwrist 30.4791 0 0
lhand -14.5016 -1.34387 0.0152914
lfingers 0 0 0
lthumb 11.645 28.3022 0.0125999
rclavicle 0 0 0
rhumerus -45.8535 -8.43497 -41.5975
rradius 81.332 -0 0
rwrist -19.283 0 0
rhand -27.2754 -46.5381 0.00207524
rfingers 0 0 0
rthumb -0.686033 -76.5165 0.00200253
680
root 5.35441 15.9608 0.824605 15.1398 -26.3389 0.2074
lfemur -39.7936 26.2418 -2.40692
ltibia 114.815 -0 0
lfoot 18.6472 -19.1583 -0.653051
ltoes 11.7902 -0 0
rfemur -34.6887 -10.3171 24.5627
rtibia 57.0007 -0 0
rfoot -23.3381 -4.89758 0.000322073
rtoes 1.73774 -0 0
lowerback 1.55226 -6.59221 -0.461939
upperback -1.79949 -8.81018 0.460813
thorax -2.57256 -4.38632 1.04912
lowerneck -8.64129 -3.75204 0.53934
upperneck 2.78066 -5.21154 2.62369
head 2.43514 -2.50666 0.497389
lclavicle 0 0 0
lhumerus 24.0792 -56.4024 40.6136
lradius 91.7816 -0 0
lwrist 30.8747 0 0
lhand -14.9852 -1.54414 0.0104783
lfingers 0 0 0
lthumb 11.1788 28.131 0.00863398
rclavicle 0 0 0
rhumerus -44.9926 -7.88218 -40.1511
rradius 83.615 -0 0
rwrist -19.2418 0 0
rhand -27.2215 -46.2939 0.00142209
rfingers 0 0 0
rthumb -0.634034 -76.2726 0.00137226
681
root 5.3502 15.9625 0.869993 14.9416 -27.577 0.159943
lfemur -41.1537 26.2898 -0.401144
ltibia 118.676 -0 0
lfoot 20.6408 -21.0457 -0.338534
ltoes 13.2038 -0 0
rfemur -33.4596 -9.47097 24.1055
rtibia 55.9561 -0 0
rfoot -23.3321 -4.58364 0.000167262
rtoes 1.67526 -0 0
lowerback 1.808 -6.60614 -0.413337
upperback -1.77725 -8.82847 0.406653
thorax -2.70747 -4.39553 1.00043
lowerneck -8.48161 -3.67947 0.567988
upperneck 2.91507 -5.11777 2.60773
head 2.44836 -2.45955 0.493996
lclavicle 0 0 0
lhumerus 25.2068 -54.5353 37.8822
lradius 92.4262 -0 0
lwrist 31.1896 0 0
lhand -15.3699 -1.70345 0.00544158
lfingers 0 0 0
lthumb 10.8079 27.9948 0.00448381
rclavicle 0 0 0
rhumerus -44.2985 -7.45788 -38.9958
rradius 85.4315 -0 0
rwrist -19.209 0 0
rhand -27.1787 -46.0996 0.000738541
rfingers 0 0 0
rthumb -0.592665 -76.0785 0.000712665
682
root 5.34751 15.9634 0.898306 14.8101 -28.3949 0.130965
lfemur -42.0512 26.3448 0.923446
ltibia 121.226 -0 0
lfoot 21.9515 -22.286 -0.0949252
ltoes 14.1376 -0 0
rfemur -32.6531 -8.90689 23.8143
rtibia 55.266 -0 0
rfoot -23.3281 -4.37627 4.6966e-05
rtoes 1.63399 -0 0
lowerback 1.97694 -6.61546 -0.381267
upperback -1.76255 -8.84054 0.370872
thorax -2.79658 -4.40168 0.968279
lowerneck -8.37612 -3.63158 0.587021
upperneck 3.00383 -5.05581 2.59731
head 2.45709 -2.42843 0.491761
lclavicle 0 0 0
lhumerus 25.8421 -53.2866 36.1783
lradius 92.852 -0 0
lwrist 31.3975 0 0
lhand -15.624 -1.80866 0.00152794
lfingers 0 0 0
lthumb 10.5629 27.9049 0.00125901
rclavicle 0 0 0
rhumerus -43.8357 -7.18526 -38.2304
rradius 86.6313 -0 0
rwrist -19.1874 0 0
rhand -27.1504 -45.9712 0.00020738
rfingers 0 0 0
rthumb -0.56534 -75.9503 0.000200114
683
root 5.32467 16.3782 1.4507 14.7625 -28.6903 0.120972
lfemur -42.375 26.3693 1.40168
ltibia 122.147 0 0
lfoot 22.4235 -22.7324 0
ltoes 14.4748 0 0
rfemur -32.3629 -8.70221 23.7112
rtibia 55.0168 0 0
rfoot -23.3267 -4.30138 0
rtoes 1.61909 0 0
lowerback 2.03794 -6.61885 -0.369693
upperback -1.75724 -8.8449 0.35795
thorax -2.82876 -4.40391 0.956672
lowerneck -8.33803 -3.6143 0.593916
upperneck 3.03588 -5.03343 2.59357
head 2.46024 -2.41719 0.490955
lclavicle -8.91549e-14 -2.06736e-14 0
lhumerus 26.0518 -52.833 35.5808
lradius 93.0058 0 0
lwrist 31.4726 0 0
lhand -15.7158 -1.84665 0
lfingers 7.12502 0 0
lthumb 10.4744 27.8724 0
rclavicle -8.91549e-14 -2.06736e-14 0
rhumerus -43.6678 -7.08832 -37.9536
rradius 87.0646 0 0
rwrist -19.1796 0 0
rhand -27.1402 -45.9249 0
rfingers 7.12502 0 0
rthumb -0.555473 -75.904 0
684
root 5.31789 16.5012 1.59931 14.6909 -29.8751 0.23837
lfemur -42.6402 25.6807 2.77335
ltibia 122.494 -0 0
lfoot 21.6402 -21.5841 -0.122581
ltoes 15.506 -0 0
rfemur -30.7918 -8.35856 22.9853
rtibia 52.1163 -0 0
rfoot -21.3433 -3.86616 0.119245
rtoes 1.65963 -0 0
lowerback 2.09114 -6.48222 -0.494422
upperback -1.75504 -8.67387 0.183862
thorax -2.86664 -4.3174 0.845374
lowerneck -8.21376 -3.67957 0.557034
upperneck 3.10774 -5.12649 2.76344
head 2.4709 -2.46007 0.549436
lclavicle 0 0 0
lhumerus 26.9644 -51.3544 33.7528
lradius 92.2863 -0 0
lwrist 31.3811 0 0
lhand -16.0778 -2.11819 0.013254
lfingers 0 0 0
lthumb 10.125 27.6135 0.0121963
rclavicle 0 0 0
rhumerus -43.2437 -7.12262 -36.621
rradius 87.9183 -0 0
rwrist -18.6831 0 0
rhand -27.5614 -45.6479 -0.0157371
rfingers 0 0 0
rthumb -0.962199 -75.6195 -0.0156054
685
root 5.30979 16.6401 1.74725 14.582 -31.5717 0.412061
lfemur -43.0489 24.7049 4.73043
ltibia 122.992 -0 0
lfoot 20.5145 -19.9368 -0.270713
ltoes 16.9827 -0 0
rfemur -28.5522 -7.83252 21.9641
rtibia 47.9626 -0 0
rfoot -18.5015 -3.23629 0.26362
rtoes 1.71768 -0 0
lowerback 2.16678 -6.28636 -0.672766
upperback -1.7528 -8.42892 -0.0653025
thorax -2.92116 -4.19364 0.685906
lowerneck -8.03569 -3.77291 0.503964
upperneck 3.21018 -5.26013 3.00656
head 2.48609 -2.5215 0.633176
lclavicle 0 0 0
lhumerus 28.0962 -49.2084 31.2955
lradius 91.256 -0 0
lwrist 31.25 0 0
lhand -16.5963 -2.50721 0.0292464
lfingers 0 0 0
lthumb 9.62453 27.2426 0.0269123
rclavicle 0 0 0
rhumerus -42.6379 -7.18876 -34.713
rradius 89.1409 -0 0
rwrist -17.9721 0 0
rhand -28.1647 -45.251 -0.0347265
rfingers 0 0 0
rthumb -1.54479 -75.2119 -0.0344358
686
root 5.30076 16.7891 1.89169 14.4373 -33.6481 0.634499
lfemur -43.594 23.5284 7.11638
ltibia 123.601 -0 0
lfoot 19.1314 -17.9169 -0.407862
ltoes 18.7905 -0 0
rfemur -25.8278 -7.13559 20.7452
rtibia 42.8778 -0 0
rfoot -15.0207 -2.45669 0.397558
rtoes 1.78875 -0 0
lowerback 2.2585 -6.04628 -0.890639
upperback -1.75153 -8.12906 -0.37009
thorax -2.98837 -4.04235 0.490568
lowerneck -7.81757 -3.88695 0.438596
upperneck 3.33483 -5.4243 3.30391
head 2.50456 -2.59673 0.735669
lclavicle 0 0 0
lhumerus 29.2355 -46.5437 28.5078
lradius 89.9947 -0 0
lwrist 31.0896 0 0
lhand -17.2311 -2.98358 0.0440294
lfingers 0 0 0
lthumb 9.01177 26.7884 0.0405153
rclavicle 0 0 0
rhumerus -41.8997 -7.29691 -32.378
rradius 90.6376 -0 0
rwrist -17.1017 0 0
rhand -28.9035 -44.7649 -0.0522806
rfingers 0 0 0
rthumb -2.25813 -74.7128 -0.0518429
687
root 5.29124 16.9423 2.02978 14.2591 -35.9725 0.898004
lfemur -44.2611 22.2369 9.77803
ltibia 124.282 -0 0
lfoot 17.5781 -15.652 -0.503426
ltoes 20.8146 -0 0
rfemur -22.8005 -6.28833 19.4238
rtibia 37.1843 -0 0
rfoot -11.1214 -1.57593 0.491036
rtoes 1.86833 -0 0
lowerback 2.36006 -5.77706 -1.13403
upperback -1.75202 -7.79329 -0.711094
thorax -3.06422 -3.87322 0.271677
lowerneck -7.57315 -4.01434 0.364875
upperneck 3.47343 -5.6089 3.63653
head 2.52508 -2.681 0.850411
lclavicle 0 0 0
lhumerus 30.2359 -43.5213 25.6248
lradius 88.5825 -0 0
lwrist 30.9099 0 0
lhand -17.9421 -3.51715 0.0543167
lfingers 0 0 0
lthumb 8.32556 26.2798 0.0499812
rclavicle 0 0 0
rhumerus -41.0789 -7.45329 -29.7646
rradius 92.3134 -0 0
rwrist -16.1272 0 0
rhand -29.7308 -44.2205 -0.0644967
rfingers 0 0 0
rthumb -3.05701 -74.1536 -0.0639565
